<?xml version="1.0" encoding="iso-8859-1"?>
<!-- Generator: Adobe Illustrator 19.0.0, SVG Export Plug-In . SVG Version: 6.00 Build 0)  -->
<svg version="1.1" id="Layer_1" xmlns="http://www.w3.org/2000/svg" xmlns:xlink="http://www.w3.org/1999/xlink" x="0px" y="0px"
	 viewBox="0 0 511.999 511.999" style="enable-background:new 0 0 511.999 511.999;" xml:space="preserve">
<g>
	<g>
		<g>
			<path d="M53.886,235.423H21.973c-6.382,0-10.637,4.256-10.637,10.637v74.463h42.551V235.423z"/>
			<path d="M219.832,363.073c-10.637-2.127-23.403-8.51-38.295-14.893v59.57h148.926v-59.57
				c-14.893,10.637-31.912,17.02-44.678,17.02h-59.571v-2.127C224.086,363.073,221.958,363.073,219.832,363.073z"/>
			<path d="M224.086,341.799h2.127h57.442c19.147,0,42.551-14.893,61.698-38.295c8.51-8.51,14.893-19.148,19.147-29.785
				c10.637-23.403,17.02-46.805,17.02-74.463c0-68.081-57.443-134.033-61.698-138.288c-2.127-2.127-6.382-4.256-10.637-2.127
				c-4.256,2.127-6.382,4.256-8.51,8.51l-6.382,38.295c-10.637-29.785-29.785-70.207-63.825-102.12
				c-4.256-4.256-8.51-4.256-12.766-2.127c-4.256,2.127-6.382,6.382-4.256,12.766c8.51,29.785-2.127,76.59-10.637,112.758
				c-2.127-17.02-8.51-34.041-17.02-38.295c-4.256-2.127-6.382-2.127-10.637,0s-6.382,6.382-6.382,8.51
				c0,14.893-8.51,29.785-17.02,46.805c-12.766,21.275-25.53,46.805-25.53,82.973C128.349,318.396,224.086,341.799,224.086,341.799z
				"/>
			<rect x="11.335" y="341.799" width="148.925" height="63.825"/>
			<path d="M360.247,320.523h76.59v-85.1H409.18c-4.256,0-8.51,4.256-10.637,8.51c-2.127,12.766-8.51,27.658-14.893,40.422
				c-4.256,12.766-12.766,23.403-23.403,34.04C362.374,318.396,360.247,318.396,360.247,320.523z"/>
			<path d="M109.201,243.933c0-6.382-4.256-8.51-10.637-8.51H75.161v85.1h70.207C128.349,301.375,113.456,275.846,109.201,243.933z"
				/>
			<path d="M436.837,511.999h53.188c6.382,0,10.637-4.256,10.637-10.637v-74.463h-63.825V511.999z"/>
			<rect x="351.737" y="341.798" width="148.926" height="63.825"/>
			<path d="M490.025,235.423h-31.912v85.1h42.551V246.06C500.663,239.678,496.407,235.423,490.025,235.423z"/>
			<rect x="96.435" y="426.899" width="148.926" height="85.1"/>
			<path d="M11.335,501.362c0,6.382,4.256,10.637,10.637,10.637h53.188v-85.1H11.335V501.362z"/>
			<rect x="266.637" y="426.899" width="148.925" height="85.1"/>
		</g>
	</g>
</g>
<g>
</g>
<g>
</g>
<g>
</g>
<g>
</g>
<g>
</g>
<g>
</g>
<g>
</g>
<g>
</g>
<g>
</g>
<g>
</g>
<g>
</g>
<g>
</g>
<g>
</g>
<g>
</g>
<g>
</g>
</svg>
